<svg xmlns="http://www.w3.org/2000/svg" width="360" height="183.37131" version="1.0"><path d="m451.372 384.257 4.244-21.22-8.926.186-1.872 10.923-.437.125-2.81-11.235h-10.485l-4.806 21.22h9.05l2.498-11.546.436-.125.187.438 2.81 11.234h10.11zM499.43 394.867l-6.366.624-6.43 1.748-2.808 1.373-3.12 2.06-1.998 2.309-4.993-4.681-2.996-1.373-5.617-1.56-34.764-.313-3.932 19.66-.437.125-.187-19.785H390.83l-9.175 18.724-.5.125 4.994-18.849h-53.987l-1.685 6.242-3.933-3.745-3.12-1.249-6.242-1.123-46.31-.125-.5.437-5.305 24.529-40.256-27.65-5.617-3.12-3.558-.624-3.308 1.248-1.56 1.56-.624 1.436v4.494l2.059 6.116 2.184 4.494 7.927 11.859 18.287 22.156 15.915 17.351-8.425 38.073 40.069-7.366 22.157 18.724 9.05 7.054 14.23 9.985 17.788 10.735 9.674 4.37 11.234 3.307 5.617.937 10.299.624 9.674-.188 7.303-.936 12.17-3.121 9.237-3.87 6.99-3.743 14.855-9.362 14.168-10.175 14.042-11.046 18.1-15.791 20.908-19.972 10.175-10.423 14.979-16.54 18.1-22.157 5.118-7.49 2.496-4.555 2.995-7.178.625-5.617-.625-1.686-2.184-2.37-2.808-.937-2.809.312-5.93 3.12-16.726 11.859-27.774 18.412-.624-1.373-1.872-2.06-1.873-1.248 8.739-.125 5.617-22.656H499.43zm-6.055 5.805 6.553-.937 16.228-.187-3.433 13.606c-11.234-.124-16.04.375-14.354 1.56l-.188 1.062.5.81 3.557 1.998 3.932 3.433 1.56 2.809.437 1.435-.124 5.118-1.56 4.057-2.685 2.996-1.872 1.685-6.866 3.432-4.181 1.249-39.195 7.677-2.81-5.618-4.056-10.61-5.305 19.036L403 462.15l.5-14.855-13.73 2.372-6.554 16.352-65.847 12.483 19.661-77.83 43.065-.186-3.932 16.85-22.469.812-1.872 8.24 19.036-.937-4.369 17.038-19.036 1.56-1.872 7.615v.625h.936l19.223-2.31-3.308 13.544.5-.125 30.395-62.6h27.649v50.866l.436-.125 12.67-50.742h26.214l4.057.312 4.182 1.124 2.808 1.56 2.497 2.622.936 1.747.625 2.934-.126 4.868-1.56 6.054-2.184 4.869-2.06 2.62-2.496 2.185-1.997 1.124-2.372.436 7.676 13.606.437-.311 2.996-13.295c11.983-1.934 17.04-3.308 15.104-4.181l-.125-1.436-.81-1.06-6.055-4.37-2.372-2.684-.749-1.685-.312-2.06.624-3.557 1.061-2.996 2.06-2.808 3.745-2.809 7.489-2.933zm-216.886 0 .437-.187h37.323l3.558.311 3.744 1.124 2.996 1.685 2.31 2.809 1.248 2.808.312 2.809-.437 6.116-1.249 4.681-3.62 8.863-2.808 3.932-2.31 1.997-1.747.812-2.309.749 3.432 1.747 1.998 2.934 1.123 3.745-.312 7.177-2.809 9.86-2.683 5.743-3.745 5.804-3.245 2.81-2.996 1.56-3.87 1.248-44.314 7.926 19.973-89.063zm147.109 73.773-11.36 4.992-12.67 4.369-9.362 1.56-8.114-1.248-12.795-4.056-8.862-4.057 26.838-5.119 5.742-15.79 4.244-1.06.624.31-.936 14.668h.436l46.998-8.737 1.248-9.362 3.246 8.113 4.993-.811c-4.93 2.808-9.86 5.617-14.793 8.425l-15.477 7.802z" style="fill:#001173;overflow:visible" transform="translate(-210.144 -362.412)"/><path d="m499.928 399.735-6.553.937-7.49 2.933-3.744 2.809-2.06 2.808-1.06 2.996-.625 3.557.312 2.06.749 1.685 2.372 2.684 6.054 4.37.811 1.06.125 1.436c1.935.873-3.12 2.247-15.104 4.181l-2.996 13.294-.437.312-7.676-13.606 2.372-.436 1.997-1.124 2.496-2.185 2.06-2.621 2.184-4.868 1.56-6.054.126-4.868-.625-2.934-.936-1.747-2.497-2.622-2.808-1.56-4.182-1.124-4.057-.312h-26.213l-12.67 50.742-.437.125v-50.867h-27.649l-30.395 62.601-.5.125 3.308-13.544-19.223 2.31h-.936v-.625l1.872-7.614 19.036-1.56 4.369-17.04-19.036.937 1.872-8.239 22.47-.811 3.93-16.851-43.064.187-19.66 77.829 65.846-12.483 6.553-16.352 13.731-2.372-.5 14.855 36.513-6.866 5.305-19.036 4.056 10.61 2.81 5.618 39.195-7.677 4.181-1.249 6.866-3.432 1.872-1.685 2.684-2.996 1.561-4.057.124-5.118-.436-1.436-1.561-2.808-3.932-3.433-3.557-1.997-.5-.812.188-1.06c-1.686-1.187 3.12-1.685 14.354-1.561l3.433-13.606-16.228.187zm-43.065 17.913-.187 2.185c-.436 3.807-3.495 5.43-9.174 4.868l2.62-9.237h4.058l2.06.936.623 1.248zm-52.426-2.622-.312 16.04-6.742.937 7.054-16.977z" style="fill:#ffdf00;overflow:visible" transform="translate(-210.144 -362.412)"/><path d="m456.676 419.833.187-2.185-.623-1.248-2.06-.936h-4.057l-2.62 9.237c5.678.561 8.737-1.061 9.173-4.868zM404.125 431.067l.312-16.04-7.054 16.976 6.742-.936z" style="fill:#001173;overflow:visible" transform="translate(-210.144 -362.412)"/><path d="m276.926 400.485-.437.187-19.973 89.063 44.314-7.926 3.87-1.248 2.996-1.56 3.245-2.81 3.745-5.803 2.683-5.743 2.809-9.861.312-7.177-1.123-3.745-1.998-2.934-3.432-1.747 2.31-.75 1.747-.81 2.309-1.998 2.809-3.932 3.62-8.863 1.248-4.68.437-6.117-.312-2.809-1.249-2.808-2.309-2.809-2.996-1.685-3.744-1.124-3.558-.311h-37.323zm12.794 49.493 4.37-.5 3.308.313 1.872 2.06.125 3.557-1.374 4.244-1.872 3.12-2.371 1.998-7.49 1.124 3.432-15.916zm3.745-16.415 3.745-15.915h6.241l1.873.624.936.936.5 1.436-.312 3.245-2.372 5.618-2.934 3.12-1.56.624-6.117.312z" style="fill:#ffdf00;overflow:visible" transform="translate(-210.144 -362.412)"/><path d="m294.09 449.479-4.37.499-3.432 15.916 7.49-1.124 2.37-1.997 1.873-3.12 1.374-4.245-.125-3.558-1.872-2.06-3.309-.311zM297.21 417.648l-3.745 15.915 6.117-.312 1.56-.624 2.934-3.12 2.372-5.618.311-3.245-.5-1.436-.935-.936-1.873-.624h-6.241zM323.61 370.214l-.935 2.809-.5 5.929.937 2.496 2.683 2.184 4.682.937 5.929-.125c6.054-.624 9.736-3.932 11.047-9.986l.811-2.684v-3.432l-.5-1.56-1.56-2.185-4.181-1.873-3.12-.312-5.181.312-5.118 1.748-3.433 3.12-1.56 2.622zm15.292-2.185v2.06l-1.123 4.369c-.687 5.492-2.684 7.24-5.93 5.305l-.311-2.996 1.747-6.99 1.685-2.496 1.872-.625 1.25.125.81 1.248zM317.994 381.012l1.685-2.497 1.435-4.057c4.93-9.737-2.309-13.544-21.72-11.422-.124.125-.249.25-.437.312l-4.68 20.909h13.106l6.367-.75 2.496-1.123 1.748-1.372zm-10.486-13.732 3.433.312 1.124 1.373-.625 5.493c-.374 3.994-2.496 5.804-6.428 5.43l2.496-12.607v-.001zM349.2 373.21l-.499 5.617 1.436 3.12 2.621 1.873 4.556.749 5.93-.125c6.553-1.248 10.173-4.556 10.922-9.986l.75-3.308v-2.309l-.438-2.06-1.248-1.872-2.06-1.373-2.621-.812-3.121-.312-5.18.312-5.305 1.873-3.745 3.62-1.997 4.993zm15.416-6.429.937 1.436-1.06 6.241-1.437 4.494-.936 1.123-2.185.437-1.06-.437c-1.873.437-1.062-3.744 2.496-12.67l1.061-.624h2.184zM406.122 384.257l1.746-3.558h7.303l.312 3.558h9.674l-3.557-21.22h-11.858l-13.294 20.907-.126.313h9.8zm8.924-9.799v1.685l-4.368-.125 3.87-7.177.498 5.617zM374.29 377.703l-.436.188-.188 2.621 1.436 2.06 2.184 1.248 2.31.624 7.053.125 5.43-.936 2.683-1.062 1.872-1.248 1.061-1.435.937-2.185-.312-2.309-.625-.936-1.373-1.248-2.496-1.124-5.492-1.56-1.998-.936-.623-1.061.748-1.249 1.56-.624 2.372.125.749.624v1.56h8.427l.186-2.933-1.872-2.06-4.37-1.248-8.737.187-4.244 1.248-3.12 2.81-.937 2.184.188 2.62 1.372 1.748 2.497 1.25 7.365 2.183.748 1.56-1.373 1.686-1.56.5-1.872-.313-.812-.624-.125-2.06h-8.612z" style="fill:#001173;overflow:visible" transform="translate(-210.144 -362.412)"/></svg>