<svg xmlns="http://www.w3.org/2000/svg" width="799.73212" height="883.72852" viewBox="0 0 799.73211 883.72852"><path d="M-698.373-8.36c-10.175-.324-20.333-.295-30.414.022l-.234.008-.237.014c-11.744.763-24.784 2.42-35.775 4.558-44.062 8.574-84.21 26.992-120.383 55.15-52.105 40.561-87.217 92.914-101.592 152.385-8.303 34.352-10.411 73.16-5.933 108.674 9.235 73.244 48.899 140.654 111.45 190.828 15.784 12.66 27.807 20.6 46.005 30.39 32.36 17.41 66.652 27.841 108.03 33.104 7.969 1.014 15.83 1.304 32.265 1.317l7.093.006.002 307.043 318.399-.72.543-.044c19.273-1.54 38.55-5.127 53.398-10.242 60.082-20.699 104.597-68.266 116.6-126.307 10.742-51.94-2.311-99.038-38.21-137.605l-.478-.514-.527-.465c-16.571-14.578-33.687-26.704-52.121-35.845 6.415-5.274 12.375-10.684 17.535-15.93l.018-.018.017-.017c20.948-21.447 33.754-42.75 40.205-67.91 3.252-12.684 4.46-24.462 3.887-37.721-.708-16.417-3.393-30.972-8.5-45.711-10.119-29.203-31.728-55.628-60.12-74.848l-.735-.5-.795-.402c-35.025-17.738-68.869-28.105-103.975-31.244l-.01-4.637c-.021-10.135-.291-20.881-.936-26.928-2.193-20.582-6.393-41.91-11.7-58.742v-.002c-5.689-18.039-15.887-40.842-25.51-57.025-27.06-45.506-68.942-86.902-113.768-112.256-15.634-8.843-36.063-17.857-53.094-23.418l-.04-.014-.044-.011c-28.383-9.072-58.297-13.187-88.09-14.29l-.205-.068zm-.898 28.153c28.548.911 56.682 4.81 82.583 13.082 14.687 4.799 34.442 13.511 47.942 21.146 39.821 22.524 79.117 61.258 103.424 102.135 8.03 13.504 18.096 36.004 22.857 51.104 4.509 14.298 8.554 34.466 10.557 53.256.254 2.386.755 14.56.775 24.002l.067 31.353 13.546.488c35.437 1.279 68.623 10.419 104.946 28.694 23.537 16.13 40.975 38.164 48.63 60.26 4.265 12.308 6.362 23.532 6.973 37.703.476 11.028-.355 19.073-3.03 29.51-5.248 20.463-14.461 36.163-33.052 55.203-8.66 8.802-21.166 19.166-33.537 27.474l-23.931 16.072 27.386 8.998c23.252 7.64 44.198 20.926 65.578 39.643 30.4 32.907 40.014 67.745 30.819 112.207-9.821 47.487-46.592 87.6-98.194 105.377-11.298 3.892-29.016 7.36-46.066 8.754l-288.93.654-.002-306.957-35.238-.03c-16.122-.012-22.344-.276-28.732-1.089-38.742-4.928-69.004-14.236-98.243-29.967-17.239-9.274-26.828-15.611-41.722-27.558-57.502-46.124-92.878-106.92-101.131-172.38-4.014-31.83-2.037-67.9 5.367-98.532 12.812-53.006 43.802-99.635 91.514-136.776 32.93-25.635 68.634-41.979 108.46-49.728 9.453-1.84 21.637-3.392 32.007-4.077 9.456-.292 18.937-.322 28.376-.021zm-56.487 42.055-13.67.402v.46c-35.928 3.245-66.519 15.093-93.129 36.509-30.445 24.503-48.74 59.752-54.484 102.947-1.83 13.76-2.082 39.416-.375 52.951 6.642 52.664 29.056 98.788 69.562 144.627 22.867 25.877 50.841 49.32 77.493 64.635 10.174 5.847 22.798 12.132 32.28 16.002 14.27 5.822 33.257 11.314 47.302 13.543 1.867.296 3.68.59 5.07.82 1.39.23 3.178.582 2.092.35 4.332.924 4.325.54 6.385.595l17.304.477v-179.76l178-.426v-14.05c0-3.117-.118-1.871-.154-2.135-.036-.264-.07-.498-.111-.77-.082-.543-.188-1.21-.317-2.007a771.019 771.019 0 0 0-.986-5.942c-9.324-55-40.567-108.174-88.87-153.476-24.953-23.404-48.985-40.195-76.593-53.334-32.408-15.425-70.798-23.479-106.799-22.418zm.828 28.156c31.105-.916 65.918 6.394 93.866 19.695 24.984 11.891 46.118 26.58 69.43 48.444 42.23 39.607 68.962 84.663 78.628 129.744l-175.09.418V465.75c-10.693-1.907-28.274-6.93-39.343-11.447-7.55-3.081-19.971-9.223-28.887-14.346-23.175-13.317-49.568-35.265-70.422-58.865-37.794-42.77-56.79-82.461-62.723-129.498-.829-6.575-.66-38.101.352-45.713 5.005-37.637 19.587-64.894 44.223-84.72 25.364-20.414 52.726-30.06 89.966-31.157zm170.834 259.56v450.791l.29-2.834c-.818 3.98.628 8.627 2.31 10.999 1.682 2.371 3.176 3.288 4.217 3.918 2.08 1.259 2.945 1.37 3.634 1.56 1.38.38 1.851.396 2.34.457.978.122 1.605.155 2.375.195 1.541.082 3.404.132 5.76.174 4.712.084 11.266.12 19.13.123 15.73.006 36.645-.122 57.567-.295 34.715-.287 58.618-.592 69.444-.724v.994l15.175-1.182c22.281-1.733 41.687-9.142 61.33-23.092 18.333-13.018 30.721-31.987 36.579-55.054 5.678-22.365 5.547-50.252-.149-73.285-4.987-20.17-13.781-37.64-26.732-49.514-15.146-13.886-36.693-23.864-59.42-28.56-7.503-1.558-17.317-2.06-29.852-2.551-12.535-.491-27.099-.733-41.002-.842-20.321-.16-30.01-.006-38.722.074v-32.52c15.789-.029 46.69-.12 73.265-.626l.414-.008.41-.032c16.78-1.305 32.045-5.638 45.985-13.252 21.824-11.919 36.502-28.807 42.58-50.468 5.142-18.324 5.389-43.342 1.211-62.926-2.478-11.615-6.866-22.837-12.998-31.867-11.328-16.682-31.066-29.124-52.21-35.05-11.172-3.13-25.567-4.099-25.567-4.099l-.596-.052zm28.168 28.25 127.15.366c.747.081 14.643 1.604 20.012 3.11 14.723 4.125 30.897 15.485 36.51 23.751 3.222 4.744 7.004 13.728 8.752 21.92 2.853 13.374 2.206 38.78-.785 49.44-4.164 14.838-11.625 23.892-28.959 33.359-10.34 5.647-21.114 8.79-34.397 9.855-33.937.638-86.265.655-86.265.655l-14.08.004v89.013l14.261-.18s24.951-.314 52.409-.1c13.728.109 28.08.352 40.12.823 12.041.471 22.463 1.408 25.231 1.983l.006.002.006.002c18.108 3.74 36.178 12.647 46.096 21.74 7.104 6.513 14.447 19.43 18.424 35.514 4.315 17.45 4.32 43.33.191 59.59-4.518 17.794-12.594 29.797-25.586 39.023-16.564 11.763-29.299 16.525-46.943 17.937-.645.008-41.495.523-82.932.866-20.881.172-41.753.299-57.32.292-4.97-.002-8.202-.042-11.9-.074z" style="color:#000;fill:#fff" transform="translate(995.24 8.59)"/><path d="M-698.822 5.717c-9.85-.315-19.711-.287-29.522.021-11.079.72-23.746 2.333-34 4.328-41.944 8.162-79.87 25.543-114.422 52.44-49.908 38.85-82.959 88.341-96.552 144.58-7.854 32.493-9.897 69.93-5.65 103.603 8.744 69.352 46.263 133.455 106.29 181.604 15.339 12.304 26.145 19.442 43.864 28.975 30.799 16.57 63.076 26.44 103.136 31.535 7.179.913 14.22 1.19 30.498 1.203l21.166.017.002 307 303.737-.687c18.222-1.456 36.815-5 49.931-9.52 55.842-19.237 96.485-63.077 107.397-115.841 9.991-48.314-1.395-89.348-34.727-125.159-22.54-19.828-45.362-34.476-71.064-42.921 13.198-8.864 26.235-19.64 35.74-29.303 19.777-20.249 30.789-38.752 36.639-61.569 2.963-11.56 3.983-21.47 3.459-33.615-.66-15.293-3.05-28.183-7.737-41.707-8.924-25.756-28.569-50.102-54.707-67.797-38.088-19.29-73.8-29.253-111.668-30.619l-.037-17.797c-.02-9.789-.406-21.248-.855-25.465-2.098-19.686-6.221-40.435-11.13-56-5.224-16.569-15.356-39.22-24.183-54.064-25.682-43.192-66.271-83.256-108.595-107.195-14.571-8.242-34.672-17.108-50.532-22.287-27.503-8.791-56.93-12.817-86.478-13.76zm-56.522 70.209c33.553-.988 70.154 6.694 100.332 21.056 26.297 12.516 48.88 28.255 73.012 50.89 46.5 43.61 75.914 94.21 84.62 145.558.752 4.44 1.368 8.265 1.368 8.5l-178 .425V481.69l-2.832-.078c-1.558-.042-3.284-.173-3.834-.29-.55-.118-4.102-.706-7.894-1.307-12.248-1.944-31.245-7.391-44.188-12.672-8.516-3.475-21.038-9.689-30.584-15.174-24.913-14.316-52.096-37.011-73.957-61.75-39.15-44.305-59.855-87.212-66.142-137.063-1.268-10.054-1.058-38.645.363-49.332 5.375-40.415 21.813-71.668 49.353-93.834 27.648-22.25 58.791-33.097 98.383-34.263zm185.332 287.763 142.043.409s14.661 1.292 23.004 3.63c17.933 5.026 35.889 16.927 44.36 29.4 4.676 6.888 8.762 16.992 10.875 26.895 3.515 16.48 3.068 41.691-.999 56.182-5.12 18.25-16.19 31.221-35.769 41.914-12.177 6.65-25.23 10.396-40.326 11.57-34.194.652-87.082.664-87.082.664v60.672s100.255-1.265 120.799 2.999c20.42 4.217 40.23 13.662 52.763 25.152 10.028 9.193 18.096 24.386 22.578 42.514 5.005 20.242 5.074 47.125.17 66.437-5.188 20.431-15.42 35.917-31.082 47.04-18.147 12.887-34.232 18.974-54.267 20.532v-.002s-167.364 2.107-167.067.659z" style="color:#000;fill:#000;stroke-width:28.167" transform="translate(995.24 8.59)"/></svg>