<svg xmlns="http://www.w3.org/2000/svg" xml:space="preserve" width="120.71738" height="84.499886" viewBox="0 0 120.71738 84.499886"><path d="M30.6 0h54.44c43.405.09 38.294 20.112 30.276 42.168C107.21 64.437 97.698 84.5 54.505 84.5L0 84.46Zm12.66 68.68h7.45c14.503-.044 17.71-3.524 25.855-26.492 8.302-22.715 7.806-26.369-6.737-26.32H62.35z" style="fill:#ffdf00;fill-opacity:1;fill-rule:nonzero;stroke:none;stroke-width:1.33333"/><path d="m58.146 17.824 16.815.639c13.4.56 10.22 11.904 5.98 24.371-4.285 12.589-8.828 23.904-22.17 23.397L41.94 65.57ZM56.563 57.09l2.302.087c4.483.145 5.751-1.8 10.104-14.786 4.381-12.84 4.52-14.926.024-15.069l-2.31-.087z" style="fill:#ffdf00;fill-opacity:1;fill-rule:nonzero;stroke:none;stroke-width:1.33334"/><path d="m61.76 20.646 12.099 1.266c9.638 1.054 6.525 10.944 2.564 21.782-4 10.943-8.096 20.75-17.696 19.746l-12.11-1.287Zm-3.97 34.625 1.656.174c3.228.315 4.284-1.35 8.363-12.641 4.088-11.162 4.339-13 1.102-13.313l-1.662-.174Z" style="fill:#ffdf00;fill-opacity:1;fill-rule:nonzero;stroke:none;stroke-width:1.33334"/><path d="M37.602 7.388h44.305c35.326.075 31.166 16.747 24.64 35.112-6.596 18.542-14.338 35.248-49.49 35.248l-44.36-.034zm10.302 57.188h6.064c11.803-.037 14.413-2.935 21.042-22.06 6.757-18.913 6.353-21.956-5.483-21.914h-6.085z" style="fill:#001173;fill-opacity:1;fill-rule:nonzero;stroke:none;stroke-width:1.33333"/></svg>